<svg width="276" height="276" viewBox="0 0 276 276" fill="none" xmlns="http://www.w3.org/2000/svg">
<path fill-rule="evenodd" clip-rule="evenodd" d="M138 276C214.215 276 276 214.215 276 138C276 61.7847 214.215 0 138 0C61.7847 0 0 61.7847 0 138C0 214.215 61.7847 276 138 276ZM150.706 217.238L174.781 193.831C179.463 189.15 186.15 189.819 191.5 194.5C196.85 199.181 196.85 206.537 192.169 211.219L168.762 234.625C160.069 243.319 148.031 248 134.656 248C121.281 248 109.244 243.988 100.55 235.294L61.7625 196.506C53.0687 187.812 48.3875 175.106 48.3875 161.731C48.3875 148.356 53.0687 136.319 61.7625 127.625L151.375 37.3438C156.056 32.6625 162.744 34 167.425 38.6813C172.106 43.3625 172.106 50.7188 167.425 55.4L145.356 77.4688C154.05 79.475 161.406 83.4875 167.425 89.5062L190.831 112.912C195.512 117.594 195.512 124.95 190.831 129.631C186.15 134.981 178.794 134.981 174.113 130.3L150.037 106.894C146.025 102.881 140.006 100.875 133.988 100.875C127.969 100.875 121.95 102.881 117.938 106.894L79.15 145.681C75.1375 149.694 73.1312 155.044 73.1312 161.731C73.1312 168.419 75.1375 174.438 79.15 178.45L117.938 217.238C121.95 221.25 128.637 223.256 134.656 223.256C140.675 223.256 146.694 221.25 150.706 217.238ZM125.963 149.694H216.244C222.931 149.694 227.613 155.713 227.613 161.731C227.613 168.419 222.263 173.769 216.244 173.769H125.963C119.944 173.769 114.594 168.419 114.594 161.731C114.594 155.044 119.944 149.694 125.963 149.694Z" fill="white"/>
</svg>
